<?xml version="1.0" ?><svg data-name="Layer 1" id="Layer_1" viewBox="0 0 140 140" xmlns="http://www.w3.org/2000/svg"><defs><style>.cls-1{fill:#f0dc6a;}.cls-2{fill:#525354;}.cls-3{fill:#fff;}.cls-4{fill:#d7dadb;}.cls-5{fill:#52b1b1;}</style></defs><title/><circle class="cls-1" cx="70" cy="70" r="64"/><rect class="cls-2" height="98" rx="1" ry="1" width="64" x="39" y="22"/><rect class="cls-3" height="98" rx="1" ry="1" width="64" x="38" y="21"/><rect class="cls-2" height="4" rx="1" ry="1" width="32" x="62.9" y="32.79"/><rect class="cls-2" height="4" rx="1" ry="1" width="20" x="62.9" y="41"/><rect class="cls-4" height="8" rx="1" ry="1" width="8" x="47.68" y="34.89"/><path class="cls-5" d="M49.38,38.74l-1.52-1.52a1.09,1.09,0,0,0-1.54,0l-.91.91a1.09,1.09,0,0,0,0,1.54l4,4a1.09,1.09,0,0,0,1.54,0L52.6,42l5.35-5.35a1.09,1.09,0,0,0,0-1.54L57,34.16a1.09,1.09,0,0,0-1.54,0l-4.58,4.58A1.09,1.09,0,0,1,49.38,38.74Z"/><rect class="cls-2" height="4" rx="1" ry="1" width="32" x="62.9" y="53.46"/><rect class="cls-2" height="4" rx="1" ry="1" width="20" x="62.9" y="61.67"/><rect class="cls-4" height="8" rx="1" ry="1" width="8" x="47.68" y="55.56"/><path class="cls-5" d="M49.38,59.4l-1.52-1.52a1.09,1.09,0,0,0-1.54,0l-.91.91a1.09,1.09,0,0,0,0,1.54l4,4a1.09,1.09,0,0,0,1.54,0l1.68-1.68,5.35-5.35a1.09,1.09,0,0,0,0-1.54L57,54.83a1.09,1.09,0,0,0-1.54,0L50.92,59.4A1.09,1.09,0,0,1,49.38,59.4Z"/><rect class="cls-2" height="4" rx="1" ry="1" width="32" x="62.9" y="74.12"/><rect class="cls-2" height="4" rx="1" ry="1" width="20" x="62.9" y="82.33"/><rect class="cls-4" height="8" rx="1" ry="1" width="8" x="47.68" y="76.23"/><path class="cls-5" d="M49.38,80.07l-1.52-1.52a1.09,1.09,0,0,0-1.54,0l-.91.91a1.09,1.09,0,0,0,0,1.54l4,4a1.09,1.09,0,0,0,1.54,0l1.68-1.68,5.35-5.35a1.09,1.09,0,0,0,0-1.54L57,75.49a1.09,1.09,0,0,0-1.54,0l-4.58,4.58A1.09,1.09,0,0,1,49.38,80.07Z"/><rect class="cls-2" height="4" rx="1" ry="1" width="32" x="62.9" y="94.79"/><rect class="cls-2" height="4" rx="1" ry="1" width="20" x="62.9" y="103"/><rect class="cls-4" height="8" rx="1" ry="1" width="8" x="47.68" y="96.89"/></svg>